<svg width="25" height="24" viewBox="0 0 25 24" fill="none" xmlns="http://www.w3.org/2000/svg">
<g clip-path="url(#clip0_301_139)">
<path d="M5.16666 3.88L9.59866 8.02L8.23466 9.48L6.16666 7.55V16C6.16666 17.1 7.06266 18 8.16666 18H13.6667V20H8.16666C5.95766 20 4.16666 18.21 4.16666 16V7.55L2.09866 9.48L0.734657 8.02L5.16666 3.88ZM17.1667 6H11.6667V4H17.1667C19.3757 4 21.1667 5.79 21.1667 8V16.45L23.2347 14.52L24.5987 15.98L20.1667 20.12L15.7347 15.98L17.0987 14.52L19.1667 16.45V8C19.1667 6.9 18.2707 6 17.1667 6Z" fill="#536471"/>
</g>
<defs>
<clipPath id="clip0_301_139">
<rect width="24" height="24" fill="white" transform="translate(0.666656)"/>
</clipPath>
</defs>
</svg>
