<svg width="20" height="20" viewBox="0 0 20 20" fill="none" xmlns="http://www.w3.org/2000/svg">
<path d="M19 10C19 8.74439 18.2273 7.65561 17.0771 7.06732C17.481 5.84683 17.2527 4.52098 16.3659 3.63415C15.479 2.74732 14.1532 2.51902 12.9327 2.92293C12.3532 1.77268 11.2556 1 10 1C8.74439 1 7.65561 1.77268 7.0761 2.92293C5.84683 2.51902 4.52098 2.74732 3.63415 3.63415C2.74732 4.52098 2.5278 5.84683 2.93171 7.06732C1.78146 7.65561 1 8.74439 1 10C1 11.2556 1.78146 12.3444 2.93171 12.9327C2.5278 14.1532 2.74732 15.479 3.63415 16.3659C4.52098 17.2527 5.84683 17.4722 7.06732 17.0771C7.65561 18.2273 8.74439 19 10 19C11.2556 19 12.3532 18.2273 12.9327 17.0771C14.1532 17.4722 15.479 17.2527 16.3659 16.3659C17.2527 15.479 17.481 14.1532 17.0771 12.9327C18.2273 12.3444 19 11.2556 19 10ZM8.71805 13.6878L5.43415 10.4039L6.6722 9.15707L8.65659 11.1415L12.8712 6.54927L14.162 7.74341L8.71805 13.6878Z" fill="#1D9BF0"/>
</svg>
